<?xml version="1.0" encoding="UTF-8"?>
<svg width="480px" height="300px" viewBox="0 0 480 300" version="1.1" xmlns="http://www.w3.org/2000/svg" xmlns:xlink="http://www.w3.org/1999/xlink">
    <!-- Generator: Sketch 51.1 (57501) - http://www.bohemiancoding.com/sketch -->
    <title>Group 2</title>
    <desc>Created with Sketch.</desc>
    <defs>
        <polygon id="path-1" points="0.0140345632 0.592273973 137.599554 0.592273973 137.599554 44.999387 0.0140345632 44.999387"></polygon>
        <polygon id="path-3" points="0 0.386568493 137.582296 0.386568493 137.582296 44.9862465 0 44.9862465"></polygon>
    </defs>
    <g id="Page-1" stroke="none" stroke-width="1" fill="none" fill-rule="evenodd">
        <g id="Group-2">
            <rect id="Rectangle" fill="#FFFFFF" fill-rule="nonzero" x="0" y="0" width="480" height="300" rx="30"></rect>
            <path d="M362.711072,223.117559 C379.310985,228.765161 396.484184,230.533244 414.034415,229.866599 C426.124808,229.408207 438.008421,227.905012 449.532957,224.332268 C457.810316,221.765391 465.794223,218.573755 471.994503,212.450063 C478.48638,206.037294 478.805835,198.321324 472.117704,192.112679 C468.359771,188.626068 463.75429,185.675132 459.018179,183.492903 C443.020031,176.122054 425.705058,174.563403 408.121396,174 C395.457717,174.378749 382.74513,175.304382 370.391,178.693651 C360.838296,181.314214 351.531374,184.534167 344.289768,191.427155 C337.308184,198.072955 337.250608,205.688043 344.039033,212.491949 C349.210371,217.67526 355.783968,220.760704 362.711072,223.117559" id="Fill-1" fill="#FFD701" transform="translate(408.000000, 202.000000) scale(-1, 1) translate(-408.000000, -202.000000) "></path>
            <path d="M280.314913,138.255671 C293.659125,144.119272 307.975726,146.063581 322.572099,146.790927 C338.650887,147.592011 354.42205,146.121981 369.858974,141.84521 C378.509593,139.448448 386.807404,136.170376 393.393164,130.023623 C400.901798,123.015027 400.933984,114.648482 393.096062,107.975539 C389.543218,104.949944 385.334273,102.408067 381.02258,100.444881 C376.99004,98.6085241 372.877035,97.1343651 368.702752,95.9468974 C367.482158,95.6000365 366.256612,95.2803109 365.025496,94.9800521 C362.909263,94.4644799 360.777556,94.0155664 358.634089,93.6238731 C357.919807,93.4935053 357.204286,93.3696264 356.486909,93.2516465 C356.328454,93.2256909 356.17,93.1979656 356.010927,93.17201 C347.448819,91.7975442 338.707831,91.2725336 329.924754,91 C319.671022,91.3350629 309.466807,92.0199363 299.461279,94.0320836 C298.031475,94.3199545 296.606005,94.634371 295.184867,94.9782824 C293.561329,95.3723353 291.943361,95.8047316 290.332201,96.2807805 C281.419142,98.9135021 272.792662,102.133764 266.11839,108.690497 C259.37727,115.312709 259.163109,123.203795 266.260752,129.423105 C270.348999,133.004975 275.261704,136.034699 280.314913,138.255671 Z" id="Fill-3" fill="#FFD701" transform="translate(330.000000, 119.000000) scale(-1, 1) translate(-330.000000, -119.000000) "></path>
            <g id="Group" transform="translate(330.000000, 157.500000) scale(-1, 1) translate(-330.000000, -157.500000) translate(261.000000, 135.000000)">
                <mask id="mask-2" fill="white">
                    <use xlink:href="#path-1"></use>
                </mask>
                <g id="Clip-8"></g>
                <path d="M137.541704,-2.05478485 C134.405901,3.78042063 132.112267,6.59939323 126.73766,9.76357131 C122.520651,12.2459686 118.107115,14.5434343 113.525392,16.2256946 C101.031463,20.8132288 88.0188027,22.8030919 74.7264455,23.1735713 C58.1313295,23.6359001 41.7462938,22.3857631 25.947142,16.9241193 C15.6020705,13.3475439 5.69256161,8.95418775 0.0277848214,-1.82855197 C0.0277848214,2.70165351 0.0733741071,6.881722 0.0160794643,11.0599412 C-0.0541526786,16.1535713 1.68440089,20.4760371 5.27917768,24.0729549 C11.4787045,30.2774069 19.2159455,33.801585 27.4072313,36.2778179 C52.3753741,43.8236398 77.594258,44.1528179 102.936972,38.3009686 C112.495321,36.0935028 121.580526,32.7222015 129.445294,26.6311741 C134.893213,22.4116535 137.911963,17.0387768 137.574356,9.941722 C137.393847,6.15185898 137.541704,2.34720145 137.541704,-2.05478485" id="Fill-7" fill="#FFD701" mask="url(#mask-2)"></path>
            </g>
            <g id="Group-12" transform="translate(408.000000, 239.500000) scale(-1, 1) translate(-408.000000, -239.500000) translate(339.000000, 217.000000)">
                <mask id="mask-4" fill="white">
                    <use xlink:href="#path-3"></use>
                </mask>
                <g id="Clip-11"></g>
                <path d="M5.74726875,27.181911 C11.4274473,32.6472534 18.3453134,35.9741712 25.7024384,38.3369795 C51.0833491,46.4881438 76.7864652,46.8654041 102.659001,40.996911 C112.426813,38.7820479 121.708546,35.3355411 129.703304,29.0589658 C134.936831,24.9510205 137.834831,19.711911 137.564992,12.8675959 C137.412206,8.97540411 137.537269,5.07273288 137.537269,0.386568493 C134.331233,7.50766438 129.132206,11.4356096 123.243179,14.5535548 C110.628501,21.2320479 96.9794384,24.0621164 82.8868045,25.246911 C64.2487955,26.8145137 45.8227152,25.8596507 27.8999652,20.166226 C16.8014384,16.6401986 6.12923304,12.2049247 0.0221169668,0.861842466 C0.0221169668,5.24102055 0.0917330382,9.33971918 0.00486696675,13.4347192 C-0.110954462,18.8920479 1.84014375,23.4228699 5.74726875,27.181911" id="Fill-10" fill="#FFD701" mask="url(#mask-4)"></path>
            </g>
            <path d="M463.803789,264.64762 C460.214859,266.62139 456.468358,268.400948 452.621752,269.791461 C440.05679,274.33529 427.019112,276.332639 413.687919,276.701208 C397.037213,277.160989 380.600928,275.861689 364.773302,270.328803 C354.510743,266.741765 344.617704,262.369811 339.016181,251.416968 C339.016181,256.064418 339.067469,260.25519 339.002586,264.444721 C338.921638,269.693424 340.74082,274.110673 344.458279,277.782097 C350.646217,283.893277 358.30915,287.406477 366.423172,289.871053 C391.463496,297.475126 416.760878,297.814532 442.180611,291.937276 C451.869732,289.696696 461.083049,286.270985 469.020343,280.017713 C474.366044,275.805224 477.29688,270.446075 476.976175,263.433326 C476.801301,259.61857 476.944661,255.788301 476.944661,251 C474.016297,257.721119 469.284199,261.634533 463.803789,264.64762 Z" id="Fill-13" fill="#FFD701" transform="translate(408.000000, 273.500000) scale(-1, 1) translate(-408.000000, -273.500000) "></path>
            <path d="M324.702782,172.034196 C320.862425,175.047309 316.540357,177.576241 312.11407,179.503965 C298.838845,185.286493 284.855293,187.563368 270.568172,187.922807 C267.59853,187.997395 264.625253,187.933738 261,187.933738 C264.734926,193.756775 266.009793,199.573383 265.571103,205.818874 C265.427499,207.864267 266.628443,208.13883 268.094783,207.95043 C277.96713,206.684356 287.931578,205.924326 297.680315,203.96188 C307.601136,201.964712 317.076602,198.205715 325.165709,191.382807 C330.365157,186.997525 333.323286,181.507563 332.971849,174.220407 C332.782194,170.272367 332.938523,166.304394 332.938523,163 C330.38697,165.868438 327.92873,169.502692 324.702782,172.034196" id="Fill-15" fill="#FFD701" transform="translate(297.000000, 185.500000) scale(-1, 1) translate(-297.000000, -185.500000) "></path>
            <path d="M327.937301,195 C325.316599,197.541535 322.842661,200.865682 319.483327,202.974045 C314.812138,205.905769 309.668176,208.396507 304.388277,210.243627 C291.454991,214.767369 277.916002,216.559785 264.115363,216.512337 C261.791799,216.503964 260.89738,217.035381 261.009257,219.31958 C261.201735,223.215894 261.195118,227.131186 261.012866,231.027499 C260.904598,233.355239 261.69556,234.233305 264.231451,233.948059 C272.850234,232.979563 281.559842,232.504525 290.08419,231.070481 C300.858119,229.258528 311.210403,226.077283 320.05294,219.687442 C325.358102,215.85309 328.328872,211.012284 327.970984,204.574994 C327.77971,201.145345 327.937301,197.69895 327.937301,195" id="Fill-17" fill="#FFD701" transform="translate(294.500000, 214.500000) scale(-1, 1) translate(-294.500000, -214.500000) "></path>
            <polygon id="Fill-1" fill="#0063B4" points="124 0 124 34 216 34 180.61361 0"></polygon>
            <polygon id="Fill-2" fill="#0063B4" points="35.3940813 0 0 34 92 34 92 0"></polygon>
            <path d="M123.057842,52 L123.057842,94.8963192 L92.9421583,94.8963192 L92.9421583,52 L0,52 L0,195 L216,195 L216,52 L123.057842,52 Z M74.0771223,157.602831 L128.077122,157.602831 L128.077122,141.208443 L74.0771223,141.208443 L74.0771223,157.602831 Z M14.5372662,174.004582 L68.545036,174.004582 L68.545036,141.208443 L14.5372662,141.208443 L14.5372662,174.004582 Z M74.0771223,174.004582 L115.614388,174.004582 L115.614388,163.668829 L74.0771223,163.668829 L74.0771223,174.004582 Z" id="Fill-3" fill="#0063B4"></path>
            <path d="M177,213 C177.689002,245.615068 190.649174,266.816672 215.880514,276.604813 C241.111855,286.392954 265.151683,279.832353 288,256.923012" id="Path-3" stroke="#0063B4" stroke-width="10" fill-rule="nonzero" transform="translate(232.500000, 247.000000) rotate(1.000000) translate(-232.500000, -247.000000) "></path>
            <polyline id="Path-5" stroke="#0063B4" stroke-width="10" fill-rule="nonzero" transform="translate(266.500000, 269.500000) rotate(18.000000) translate(-266.500000, -269.500000) " points="289 291 287.170364 248 244 253.163482"></polyline>
            <polyline id="Path-5-Copy" stroke="#0063B4" stroke-width="10" fill-rule="nonzero" transform="translate(182.000000, 235.000000) rotate(-58.000000) translate(-182.000000, -235.000000) " points="201.337383 256 202 214 162 217.321672"></polyline>
        </g>
    </g>
</svg>